<svg xmlns="http://www.w3.org/2000/svg" viewBox="0 0 584 545" width="584" height="545" aria-label="Überblick blob mark">
  <path fill="#6E9774" d="M361,0 Q361,0 401.5,11 Q442,22 456.5,33 Q471,44 481.5,55 Q492,66 500.5,77 Q509,88 515.5,99 Q522,110 528.5,121 Q535,132 541,143 Q547,154 552.5,165 Q558,176 564,187 Q570,198 575,209 Q580,220 582,231 Q584,242 584,253 Q584,264 583,275 Q582,286 579.5,297 Q577,308 574,319 Q571,330 567,341 Q563,352 558.5,363 Q554,374 547.5,385 Q541,396 529.5,407 Q518,418 505.5,429 Q493,440 479,451 Q465,462 449.5,473 Q434,484 416,495 Q398,506 373.5,517 Q349,528 308.5,536.5 Q268,545 258,545 Q248,545 211.5,536.5 Q175,528 154,517 Q133,506 119,495 Q105,484 93.5,473 Q82,462 72,451 Q62,440 53.5,429 Q45,418 38.5,407 Q32,396 26.5,385 Q21,374 17,363 Q13,352 10,341 Q7,330 5,319 Q3,308 2,297 Q1,286 0.5,275 Q0,264 1,253 Q2,242 3.5,231 Q5,220 7.5,209 Q10,198 13,187 Q16,176 20.5,165 Q25,154 30.5,143 Q36,132 43.5,121 Q51,110 61,99 Q71,88 86.5,77 Q102,66 124,55 Q146,44 176.5,33 Q207,22 271,11 Q335,0 348,0 Z"></path>
</svg>