<svg xmlns="http://www.w3.org/2000/svg" viewBox="0 0 800 720" width="800" height="720" aria-label="Überblick — Silke Burkhardt">
  
  <path fill="#6E9774" d="M361,40 Q361,40 401.5,51 Q442,62 456.5,73 Q471,84 481.5,95 Q492,106 500.5,117 Q509,128 515.5,139 Q522,150 528.5,161 Q535,172 541,183 Q547,194 552.5,205 Q558,216 564,227 Q570,238 575,249 Q580,260 582,271 Q584,282 584,293 Q584,304 583,315 Q582,326 579.5,337 Q577,348 574,359 Q571,370 567,381 Q563,392 558.5,403 Q554,414 547.5,425 Q541,436 529.5,447 Q518,458 505.5,469 Q493,480 479,491 Q465,502 449.5,513 Q434,524 416,535 Q398,546 373.5,557 Q349,568 308.5,576.5 Q268,585 258,585 Q248,585 211.5,576.5 Q175,568 154,557 Q133,546 119,535 Q105,524 93.5,513 Q82,502 72,491 Q62,480 53.5,469 Q45,458 38.5,447 Q32,436 26.5,425 Q21,414 17,403 Q13,392 10,381 Q7,370 5,359 Q3,348 2,337 Q1,326 0.5,315 Q0,304 1,293 Q2,282 3.5,271 Q5,260 7.5,249 Q10,238 13,227 Q16,216 20.5,205 Q25,194 30.5,183 Q36,172 43.5,161 Q51,150 61,139 Q71,128 86.5,117 Q102,106 124,95 Q146,84 176.5,73 Q207,62 271,51 Q335,40 348,40 Z" transform="translate(80, 0)"></path>

  
  <text x="222" y="296" font-family="&#39;Inter Tight&#39;, &#39;Helvetica Neue&#39;, sans-serif" font-size="38" font-weight="500" letter-spacing="6" fill="#FFFFFF">ÜBERBLICK.</text>

  
  <text x="222" y="346" font-family="&#39;Cormorant Garamond&#39;, Georgia, serif" font-size="44" font-weight="400" fill="#FFFFFF">Silke Burkhardt</text>
</svg>